<svg width="16" height="16" viewBox="0 0 16 16" fill="none" xmlns="http://www.w3.org/2000/svg">
<path d="M9.80002 15.1666H6.20002C2.90668 15.1666 1.50668 13.7599 1.50668 10.4733V7.47992C1.50668 7.20659 1.73335 6.97992 2.00668 6.97992C2.28001 6.97992 2.50668 7.20659 2.50668 7.47992V10.4733C2.50668 13.1999 3.47335 14.1666 6.20002 14.1666H9.79335C12.52 14.1666 13.4867 13.1999 13.4867 10.4733V7.47992C13.4867 7.20659 13.7133 6.97992 13.9867 6.97992C14.26 6.97992 14.4867 7.20659 14.4867 7.47992V10.4733C14.4933 13.7599 13.0867 15.1666 9.80002 15.1666Z" fill="#E0621C"/>
<path fill-rule="evenodd" clip-rule="evenodd" d="M14.4867 10.4733V7.47992C14.4867 7.20659 14.26 6.97992 13.9867 6.97992C13.7133 6.97992 13.4867 7.20659 13.4867 7.47992V10.4733C13.4867 10.7224 13.4786 10.9568 13.4619 11.1772C13.4276 11.6284 13.3569 12.0205 13.2447 12.3588C13.0068 13.0757 12.5823 13.5506 11.9216 13.833C11.4167 14.0487 10.774 14.1521 9.97135 14.1652C9.91287 14.1661 9.85354 14.1666 9.79335 14.1666H6.20002C6.19735 14.1666 6.19469 14.1666 6.19203 14.1666C5.2287 14.1659 4.48552 14.0442 3.92736 13.7663C3.46665 13.5369 3.132 13.2011 2.90366 12.7392C2.62734 12.1802 2.50668 11.4366 2.50668 10.4733V7.47992C2.50668 7.20659 2.28001 6.97992 2.00668 6.97992C1.73335 6.97992 1.50668 7.20659 1.50668 7.47992V10.4733C1.50668 11.5787 1.66507 12.4715 2.00063 13.1697C2.32616 13.8469 2.81844 14.341 3.4946 14.6682C4.19359 15.0065 5.08908 15.1666 6.20002 15.1666H9.79335C9.79557 15.1666 9.79779 15.1666 9.80002 15.1666C9.85147 15.1666 9.90247 15.1662 9.95301 15.1655C10.8915 15.1527 11.6717 15.0203 12.305 14.7568C13.2454 14.3655 13.8622 13.685 14.1927 12.6773C14.3389 12.2314 14.4292 11.7215 14.4666 11.1442C14.4805 10.9299 14.4872 10.7063 14.4867 10.4733Z" fill="#E0621C"/>
<path d="M8.00001 8.49992C7.26668 8.49992 6.60001 8.21325 6.12668 7.68659C5.65335 7.15992 5.43335 6.47325 5.50668 5.73992L5.95335 1.28659C5.98001 1.03325 6.19335 0.833252 6.45335 0.833252H9.56668C9.82668 0.833252 10.04 1.02659 10.0667 1.28659L10.5133 5.73992C10.5867 6.47325 10.3667 7.15992 9.89335 7.68659C9.40001 8.21325 8.73335 8.49992 8.00001 8.49992ZM6.90001 1.83325L6.50001 5.83992C6.45335 6.28659 6.58668 6.70659 6.86668 7.01325C7.43335 7.63992 8.56668 7.63992 9.13335 7.01325C9.41335 6.69992 9.54668 6.27992 9.50001 5.83992L9.10001 1.83325H6.90001Z" fill="#E0621C"/>
<path fill-rule="evenodd" clip-rule="evenodd" d="M9.13335 7.01325C8.56668 7.63992 7.43335 7.63992 6.86668 7.01325C6.85693 7.00257 6.84735 6.99175 6.83796 6.9808C6.57761 6.67729 6.45497 6.27103 6.50001 5.83992L6.90001 1.83325H9.10001L9.50001 5.83992C9.54668 6.27992 9.41335 6.69992 9.13335 7.01325ZM6.07653 7.62906C5.63805 7.1106 5.43623 6.44653 5.50668 5.73992C5.50665 5.74019 5.50671 5.73964 5.50668 5.73992L5.95335 1.28659C5.98001 1.03325 6.19335 0.833252 6.45335 0.833252H9.56668C9.78279 0.833252 9.96666 0.966825 10.0379 1.16123C10.0524 1.20071 10.0622 1.2427 10.0667 1.28659L10.5133 5.73992C10.5867 6.47325 10.3667 7.15992 9.89335 7.68659C9.40001 8.21325 8.73335 8.49992 8.00001 8.49992C7.26668 8.49992 6.60001 8.21325 6.12668 7.68659C6.10963 7.66762 6.09291 7.64844 6.07653 7.62906Z" fill="#E0621C"/>
<path d="M12.2067 8.49992C10.8533 8.49992 9.64668 7.40659 9.50668 6.05992L9.04001 1.38659C9.02668 1.24659 9.07335 1.10659 9.16668 0.999919C9.26001 0.893252 9.39335 0.833252 9.54001 0.833252H11.5733C13.5333 0.833252 14.4467 1.65325 14.72 3.66659L14.9067 5.51992C14.9867 6.30659 14.7467 7.05325 14.2333 7.61992C13.72 8.18659 13 8.49992 12.2067 8.49992ZM10.0933 1.83325L10.5067 5.95992C10.5933 6.79325 11.3667 7.49992 12.2067 7.49992C12.7133 7.49992 13.1667 7.30659 13.4933 6.95325C13.8133 6.59992 13.96 6.12659 13.9133 5.61992L13.7267 3.78659C13.52 2.27992 13.0333 1.83325 11.5733 1.83325H10.0933Z" fill="#E0621C"/>
<path d="M3.76001 8.49992C2.96668 8.49992 2.24668 8.18659 1.73335 7.61992C1.22001 7.05325 0.980014 6.30659 1.06001 5.51992L1.24001 3.68659C1.52001 1.65325 2.43335 0.833252 4.39335 0.833252H6.42668C6.56668 0.833252 6.70001 0.893252 6.80001 0.999919C6.90001 1.10659 6.94001 1.24659 6.92668 1.38659L6.46001 6.05992C6.32001 7.40659 5.11335 8.49992 3.76001 8.49992ZM4.39335 1.83325C2.93335 1.83325 2.44668 2.27325 2.23335 3.79992L2.05335 5.61992C2.00001 6.12659 2.15335 6.59992 2.47335 6.95325C2.79335 7.30659 3.24668 7.49992 3.76001 7.49992C4.60001 7.49992 5.38001 6.79325 5.46001 5.95992L5.87335 1.83325H4.39335Z" fill="#E0621C"/>
<path d="M9.66668 15.1666H6.33335C6.06001 15.1666 5.83335 14.9399 5.83335 14.6666V12.9999C5.83335 11.5999 6.60001 10.8333 8.00001 10.8333C9.40001 10.8333 10.1667 11.5999 10.1667 12.9999V14.6666C10.1667 14.9399 9.94001 15.1666 9.66668 15.1666ZM6.83335 14.1666H9.16668V12.9999C9.16668 12.1599 8.84001 11.8333 8.00001 11.8333C7.16001 11.8333 6.83335 12.1599 6.83335 12.9999V14.1666Z" fill="#E0621C"/>
</svg>
