<svg width="16" height="17" viewBox="0 0 16 17" fill="none" xmlns="http://www.w3.org/2000/svg">
<path d="M3.99993 7.83325H6.66659M5.33326 6.49992V9.16659M9.99993 8.49992H10.0066M11.9999 7.16659H12.0066M6.9659 3.83325H9.03396C10.7839 3.83325 11.6588 3.83325 12.3456 4.16487C12.9503 4.45685 13.4527 4.92464 13.787 5.50698C14.1667 6.16838 14.2291 7.04112 14.3537 8.7866L14.5178 11.0829C14.5982 12.2089 13.7064 13.1666 12.5776 13.1666C12.0004 13.1666 11.4529 12.9102 11.0834 12.4667L10.8333 12.1666C10.6045 11.8921 10.4901 11.7548 10.3599 11.6439C10.0868 11.4114 9.75626 11.2565 9.40284 11.1956C9.23425 11.1666 9.05557 11.1666 8.69822 11.1666H7.30164C6.94428 11.1666 6.76561 11.1666 6.59702 11.1956C6.24359 11.2565 5.91305 11.4114 5.64 11.6439C5.50975 11.7548 5.39537 11.8921 5.16659 12.1666L4.91649 12.4667C4.54693 12.9102 3.99949 13.1666 3.42223 13.1666C2.29342 13.1666 1.40167 12.2089 1.48209 11.0829L1.64612 8.7866C1.77079 7.04112 1.83313 6.16838 2.21284 5.50698C2.54716 4.92464 3.04956 4.45685 3.65423 4.16487C4.34101 3.83325 5.21597 3.83325 6.9659 3.83325Z" stroke="#E0621C" stroke-linecap="round" stroke-linejoin="round"/>
</svg>
