<svg width="24" height="24" viewBox="0 0 24 24" fill="none" xmlns="http://www.w3.org/2000/svg">
<path d="M10.5164 17.1579C9.58272 17.1682 8.66005 16.9557 7.82502 16.5379C7.58601 16.4151 7.37164 16.2494 7.19259 16.049C7.10663 15.9525 7.04333 15.838 7.00734 15.7139C6.97135 15.5898 6.96357 15.4592 6.98458 15.3317C7.31791 15.4957 7.64548 15.679 7.99082 15.8206C8.55558 16.0499 9.15332 16.1876 9.76149 16.2286C10.2435 16.2617 10.729 16.2522 11.2133 16.2562C11.3337 16.2562 11.4521 16.2319 11.5726 16.225C11.5886 16.2238 11.6047 16.2257 11.6199 16.2307C11.6352 16.2357 11.6493 16.2437 11.6615 16.2542C11.8737 16.4902 12.081 16.7295 12.2986 16.9786C12.0999 17.0155 11.8955 17.071 11.6884 17.0897C11.3328 17.1215 10.9773 17.1608 10.6217 17.1608C10.5861 17.1608 10.5506 17.1608 10.5155 17.159M8.36259 15.0222C7.99002 14.8999 7.64484 14.7062 7.34637 14.4519C7.20919 14.3467 7.10335 14.206 7.0403 14.0451C6.97724 13.8841 6.95937 13.709 6.98859 13.5386C8.17637 14.319 9.50282 14.5262 10.8739 14.5164C10.9628 14.8035 11.0484 15.081 11.1388 15.373C11.0982 15.3777 11.0499 15.3853 11.0032 15.3882C10.8721 15.3939 10.7399 15.3979 10.6097 15.3979C9.84455 15.4046 9.08412 15.2778 8.36259 15.023M10.5428 13.6368C9.76659 13.6371 8.99653 13.4989 8.26881 13.2288C7.95077 13.1152 7.65454 12.9479 7.39303 12.7342C7.1996 12.594 7.06051 12.3913 6.99925 12.1604C6.98099 12.03 6.97148 11.8985 6.9708 11.7668C8.16813 12.5668 9.49615 12.7564 10.8704 12.7619C10.8406 13.055 10.8119 13.3353 10.7815 13.6377H10.6666C10.6262 13.6377 10.5848 13.6377 10.5433 13.6377M11.6766 13.5044C11.7026 12.8132 11.9314 12.1449 12.3345 11.5828C12.7376 11.0207 13.2971 10.5896 13.9434 10.3432C14.5897 10.0968 15.2942 10.046 15.9692 10.1971C16.6442 10.3481 17.2598 10.6944 17.7394 11.1929C18.2189 11.6913 18.5413 12.3198 18.6663 13.0001C18.7913 13.6804 18.7133 14.3824 18.4422 15.0187C18.1711 15.6551 17.7188 16.1976 17.1416 16.5787C16.5644 16.9599 15.8878 17.1628 15.1961 17.1622H15.1895C14.7159 17.1619 14.2472 17.066 13.8116 16.8803C13.376 16.6945 12.9823 16.4227 12.6543 16.0811C12.3263 15.7396 12.0706 15.3353 11.9026 14.8925C11.7346 14.4497 11.6577 13.9776 11.6766 13.5044ZM8.44503 11.5286C8.02803 11.4022 7.6429 11.1881 7.31547 10.9006C7.18713 10.7948 7.08937 10.6566 7.03229 10.5003C6.97522 10.344 6.96091 10.1754 6.99082 10.0117C7.67245 10.4731 8.45072 10.7721 9.26591 10.8859C10.0822 11.0227 10.9143 11.037 11.7348 10.9284C11.6748 11.013 11.6266 11.0704 11.587 11.1368C11.463 11.3455 11.3441 11.559 11.219 11.7679C11.1966 11.8089 11.159 11.8394 11.1144 11.8528C10.933 11.8662 10.7504 11.8751 10.5706 11.8751C9.84794 11.8763 9.12993 11.7591 8.44503 11.5286ZM10.6419 10.1066C9.82587 10.1152 9.01523 9.97331 8.25058 9.68816C7.8919 9.54993 7.56189 9.3465 7.27725 9.08816C7.22582 9.04054 7.17997 8.98723 7.14058 8.92926C7.02861 8.79465 6.9718 8.62262 6.98157 8.44779C6.99134 8.27297 7.06698 8.10834 7.19326 7.98704C7.41126 7.74872 7.67603 7.55786 7.97104 7.42637C8.55283 7.15993 9.1753 6.99324 9.81238 6.93326C10.496 6.85436 11.1873 6.87149 11.8661 6.98415C12.5012 7.06883 13.1118 7.28442 13.6592 7.61727C13.8276 7.72799 13.9812 7.85956 14.1166 8.00883C14.2355 8.12128 14.3077 8.27445 14.3187 8.43777C14.3297 8.60109 14.2787 8.76254 14.1759 8.88993C13.9789 9.16645 13.7123 9.38607 13.4033 9.52659C12.699 9.86368 11.9334 10.0538 11.1533 10.0855C11.067 10.091 10.9821 10.1008 10.8977 10.1059C10.8692 10.1059 10.8404 10.1059 10.8117 10.1059C10.7544 10.1059 10.697 10.1059 10.6413 10.1059M8.05481 6.42549C7.48953 6.60227 6.97956 6.92217 6.57437 7.35415C6.26338 7.68976 6.09088 8.13061 6.09148 8.58816C6.09948 10.8845 6.10006 13.1799 6.09325 15.4744C6.08951 15.9171 6.25666 16.3442 6.55991 16.6668C6.97493 17.1003 7.4908 17.4243 8.06148 17.6099C8.8407 17.8871 9.6611 18.0308 10.4881 18.0348C11.3963 18.0617 12.302 17.9273 13.1633 17.6379C13.2312 17.6168 13.3043 17.6195 13.3704 17.6457C14.2514 18.0535 15.2444 18.1514 16.1881 17.9235C17.0982 17.7256 17.9171 17.2319 18.517 16.5195C19.0254 15.9347 19.3702 15.2259 19.5165 14.465C19.6629 13.7041 19.6055 12.918 19.3503 12.1863C19.095 11.4547 18.651 10.8035 18.0631 10.2987C17.4752 9.79389 16.7644 9.4534 16.0026 9.31171C15.745 9.26549 15.4808 9.24771 15.1981 9.2146C15.1981 9.00637 15.1944 8.79237 15.1981 8.5786C15.1977 8.3257 15.1439 8.07575 15.04 7.84516C14.9362 7.61456 14.7848 7.40853 14.5957 7.2406C14.1554 6.82847 13.6247 6.52519 13.0461 6.35504C12.3659 6.13653 11.6578 6.0168 10.9435 5.99949C10.8419 5.99749 10.7395 5.99616 10.6384 5.99616C9.75801 5.9836 8.88256 6.12925 8.0537 6.42616M10.327 22.2484C8.23414 21.0604 6.15859 19.8399 4.06525 18.6535C3.63199 18.4104 3.25685 18.0759 2.96589 17.6732C2.67493 17.2706 2.47512 16.8094 2.38036 16.3217C2.33636 16.1066 2.3169 15.8872 2.32236 15.6677C2.31525 14.4539 2.31924 13.2419 2.31924 12.029C2.31924 10.8033 2.31325 9.57682 2.32236 8.35104C2.30836 7.97045 2.36974 7.59085 2.503 7.23407C2.63625 6.8773 2.83874 6.55039 3.09881 6.27216C3.3698 5.98884 3.6768 5.74229 4.01192 5.53883C6.12214 4.30194 8.23978 3.07683 10.3648 1.86349C11.4659 1.23838 12.5766 1.33771 13.6486 1.95238C15.7073 3.13349 17.7564 4.33194 19.8113 5.51972C20.9773 6.19394 21.5348 7.22393 21.5424 8.54971C21.5555 10.9222 21.5328 13.295 21.5515 15.6666C21.5633 17.0355 20.939 18.0124 19.7935 18.6828C17.7507 19.8784 15.7027 21.0649 13.6497 22.2424C13.1506 22.5505 12.5759 22.7143 11.9893 22.7155C11.4028 22.7167 10.8274 22.5553 10.327 22.2493M9.95615 0.675045C7.75467 1.9269 5.56208 3.19467 3.37838 4.47838C1.86927 5.36727 1.10681 6.70838 1.11169 8.47349C1.11569 9.66505 1.11169 10.8575 1.11169 12.0513C1.11169 13.2699 1.10904 14.4895 1.11481 15.709C1.11146 15.9623 1.13251 16.2153 1.17769 16.4646C1.29802 17.1487 1.56933 17.7974 1.97188 18.3635C2.37444 18.9296 2.89811 19.3988 3.50482 19.737C5.55193 20.9115 7.59103 22.1001 9.6417 23.2673C11.1666 24.1377 12.7328 24.167 14.2595 23.3077C16.3899 22.1059 18.501 20.8679 20.603 19.6175C22.0939 18.7313 22.8459 17.3848 22.8566 15.6506C22.8713 13.4062 22.8612 11.1593 22.8584 8.91371C22.8626 8.64771 22.8512 8.3817 22.8242 8.11705C22.6408 6.53683 21.9304 5.28104 20.5268 4.46904C18.5301 3.31349 16.5246 2.17237 14.5346 1.00571C13.8441 0.562912 13.055 0.297227 12.2373 0.232161C12.1262 0.227272 12.0164 0.224375 11.9075 0.224375C11.2283 0.201734 10.5551 0.357915 9.95525 0.67727" fill="#F0691D"/>
</svg>
