<svg width="16" height="17" viewBox="0 0 16 17" fill="none" xmlns="http://www.w3.org/2000/svg">
<path d="M2.97745 14.196C3.19072 14.4093 3.43562 14.5809 3.71045 14.717C3.41923 14.5757 3.17531 14.4024 2.97225 14.1991C2.76793 13.9946 2.5941 13.7488 2.45262 13.4552C2.5893 13.7332 2.76214 13.9807 2.97745 14.196ZM9.7935 15.1666C9.8497 15.1666 9.90542 15.1663 9.96064 15.1655C9.90781 15.1662 9.85433 15.1666 9.80017 15.1666L9.7935 15.1666ZM13.0248 14.1991C12.7827 14.4414 12.4827 14.641 12.1139 14.7948C12.4583 14.6482 12.7601 14.4522 13.0162 14.196C13.3387 13.8736 13.5659 13.4788 13.719 13.0176C13.5568 13.5131 13.3233 13.9002 13.0248 14.1991ZM13.9868 10.9743C13.9873 11.217 13.9798 11.4462 13.9644 11.6627C13.9798 11.4419 13.9868 11.212 13.9868 10.9733L13.9868 10.9743Z" fill="#E0621C" stroke="#E0621C"/>
<path d="M9.56827 1.83333C9.56851 1.834 9.56886 1.83529 9.56909 1.83739C9.5691 1.83746 9.56911 1.83753 9.56911 1.8376L10.0157 6.28967C10.0157 6.28972 10.0157 6.28977 10.0157 6.28982C10.0753 6.88674 9.89806 7.43103 9.52472 7.84854C9.12787 8.2702 8.59545 8.49992 7.99984 8.49992C7.4005 8.49992 6.87175 8.2678 6.49839 7.85236C6.48431 7.8367 6.47051 7.82086 6.45699 7.80484C6.46989 7.81991 6.48306 7.83481 6.49648 7.84953C6.89124 8.28547 7.46079 8.48325 7.99984 8.48325C8.53927 8.48325 9.10925 8.28519 9.50403 7.84861L9.506 7.84642C9.88347 7.42401 10.0577 6.86298 9.99722 6.28876L9.59736 2.28358L9.55241 1.83325L9.5665 1.83325C9.56725 1.83325 9.56783 1.83329 9.56827 1.83333Z" fill="#E0621C" stroke="#E0621C"/>
<path d="M12.2065 8.99992C10.8532 8.99992 9.64651 7.90658 9.50651 6.55992L9.03984 1.88659C9.02651 1.74659 9.07317 1.60659 9.1665 1.49992C9.25984 1.39325 9.39317 1.33325 9.53984 1.33325H11.5732C13.5332 1.33325 14.4465 2.15325 14.7198 4.16659L14.9065 6.01992C14.9865 6.80658 14.7465 7.55325 14.2332 8.11992C13.7198 8.68659 12.9998 8.99992 12.2065 8.99992ZM10.0932 2.33325L10.5065 6.45992C10.5932 7.29325 11.3665 7.99992 12.2065 7.99992C12.7132 7.99992 13.1665 7.80659 13.4932 7.45325C13.8132 7.09992 13.9598 6.62659 13.9132 6.11992L13.7265 4.28658C13.5198 2.77992 13.0332 2.33325 11.5732 2.33325H10.0932V2.33325Z" fill="#E0621C"/>
<path d="M3.76001 8.99992C2.96668 8.99992 2.24668 8.68659 1.73335 8.11992C1.22001 7.55325 0.980014 6.80658 1.06001 6.01992L1.24001 4.18659C1.52001 2.15325 2.43335 1.33325 4.39335 1.33325H6.42668C6.56668 1.33325 6.70001 1.39325 6.80001 1.49992C6.90001 1.60659 6.94001 1.74659 6.92668 1.88659L6.46001 6.55992C6.32001 7.90658 5.11335 8.99992 3.76001 8.99992ZM4.39335 2.33325C2.93335 2.33325 2.44668 2.77325 2.23335 4.29992L2.05335 6.11992C2.00001 6.62659 2.15335 7.09992 2.47335 7.45325C2.79335 7.80659 3.24668 7.99992 3.76001 7.99992C4.60001 7.99992 5.38001 7.29325 5.46001 6.45992L5.87335 2.33325H4.39335V2.33325Z" fill="#E0621C"/>
<path d="M9.66683 15.6666H6.3335C6.06016 15.6666 5.8335 15.4399 5.8335 15.1666V13.4999C5.8335 12.0999 6.60016 11.3333 8.00016 11.3333C9.40016 11.3333 10.1668 12.0999 10.1668 13.4999V15.1666C10.1668 15.4399 9.94016 15.6666 9.66683 15.6666ZM6.8335 14.6666H9.16683V13.4999C9.16683 12.6599 8.84016 12.3333 8.00016 12.3333C7.16016 12.3333 6.8335 12.6599 6.8335 13.4999V14.6666Z" fill="#E0621C"/>
</svg>
