<svg width="16" height="17" viewBox="0 0 16 17" fill="none" xmlns="http://www.w3.org/2000/svg">
<path d="M8.10671 7.74658C8.04004 7.73992 7.96004 7.73992 7.88671 7.74658C6.30004 7.69325 5.04004 6.39325 5.04004 4.79325C5.04004 3.15992 6.36004 1.83325 8.00004 1.83325C9.63337 1.83325 10.96 3.15992 10.96 4.79325C10.9534 6.39325 9.69337 7.69325 8.10671 7.74658Z" stroke="white" stroke-linecap="round" stroke-linejoin="round"/>
<path d="M4.77348 10.2067C3.16014 11.2867 3.16014 13.0467 4.77348 14.1201C6.60681 15.3467 9.61348 15.3467 11.4468 14.1201C13.0601 13.0401 13.0601 11.2801 11.4468 10.2067C9.62014 8.98675 6.61348 8.98675 4.77348 10.2067Z" stroke="white" stroke-linecap="round" stroke-linejoin="round"/>
</svg>
