<svg width="16" height="17" viewBox="0 0 16 17" fill="none" xmlns="http://www.w3.org/2000/svg">
<path d="M4.00016 4.49992L5.3335 3.16659M5.3335 3.16659L4.00016 1.83325M5.3335 3.16659H4.00016C2.5274 3.16659 1.3335 4.36049 1.3335 5.83325M12.0002 12.4999L10.6668 13.8333M10.6668 13.8333L12.0002 15.1666M10.6668 13.8333H12.0002C13.4729 13.8333 14.6668 12.6393 14.6668 11.1666M8.94494 9.4447C9.46645 9.69379 10.0504 9.83325 10.6668 9.83325C12.876 9.83325 14.6668 8.04239 14.6668 5.83325C14.6668 3.62411 12.876 1.83325 10.6668 1.83325C8.45769 1.83325 6.66683 3.62411 6.66683 5.83325C6.66683 6.44973 6.80629 7.03363 7.05538 7.55514M9.3335 11.1666C9.3335 13.3757 7.54264 15.1666 5.3335 15.1666C3.12436 15.1666 1.3335 13.3757 1.3335 11.1666C1.3335 8.95745 3.12436 7.16659 5.3335 7.16659C7.54264 7.16659 9.3335 8.95745 9.3335 11.1666Z" stroke="#E0621C" stroke-linecap="round" stroke-linejoin="round"/>
</svg>
