<svg width="226" height="69" viewBox="0 0 226 69" fill="none" xmlns="http://www.w3.org/2000/svg">
<g clip-path="url(#clip0_246_3370)">
<path d="M34.4857 0.762695C16.7106 0.762695 2.14887 14.428 0.765137 31.7945L18.9013 39.2708C20.438 38.223 22.2945 37.609 24.2917 37.609C24.4707 37.609 24.6489 37.6166 24.8256 37.625L32.8909 25.9693C32.8909 25.9136 32.8909 25.8595 32.8909 25.8046C32.8909 18.7889 38.6147 13.0812 45.652 13.0812C52.6885 13.0812 58.4123 18.7889 58.4123 25.8046C58.4123 32.8203 52.6885 38.5288 45.652 38.5288C45.5548 38.5288 45.4585 38.5288 45.3621 38.5212L33.8593 46.7045C33.8669 46.8532 33.8707 47.005 33.8707 47.156C33.8707 52.4229 29.5742 56.706 24.2924 56.706C19.6563 56.706 15.7797 53.4067 14.9016 49.0374L1.93087 43.6943C5.94668 57.8553 18.9954 68.2374 34.4857 68.2374C53.1742 68.2374 68.3233 53.1322 68.3233 34.5012C68.3233 15.8671 53.1734 0.762695 34.4857 0.762695Z" fill="white"/>
<path d="M21.9691 51.9539L17.8125 50.2417C18.5491 51.7709 19.8235 53.0514 21.5155 53.7545C25.1733 55.2738 29.3903 53.5433 30.9148 49.8932C31.6529 48.1284 31.6575 46.1798 30.9255 44.4105C30.195 42.6403 28.8166 41.2599 27.0443 40.5232C25.2857 39.7933 23.4017 39.82 21.7465 40.4431L26.0399 42.2132C28.7378 43.3343 30.0137 46.4231 28.8893 49.113C27.7671 51.8037 24.6669 53.0758 21.9691 51.9539Z" fill="white"/>
<path d="M54.1531 25.8046C54.1531 21.1303 50.3392 17.3269 45.6503 17.3269C40.9621 17.3269 37.1475 21.1303 37.1475 25.8046C37.1475 30.4797 40.9621 34.2816 45.6503 34.2816C50.3392 34.2816 54.1531 30.4789 54.1531 25.8046ZM39.277 25.7901C39.277 22.2727 42.137 19.4219 45.6648 19.4219C49.1926 19.4219 52.0526 22.2727 52.0526 25.7901C52.0526 29.3075 49.1926 32.1583 45.6648 32.1583C42.137 32.1583 39.277 29.3067 39.277 25.7901Z" fill="white"/>
<path d="M104.46 23.846L102.193 27.8195C100.447 26.603 98.0801 25.8709 96.0141 25.8709C93.6528 25.8709 92.1918 26.8455 92.1918 28.5913C92.1918 30.7122 94.7872 31.2057 98.6446 32.5861C102.791 34.0481 105.175 35.7664 105.175 39.553C105.175 44.7337 101.089 47.6432 95.2155 47.6432C92.3532 47.6432 88.9004 46.9065 86.2461 45.2965L87.8998 40.8914C90.0561 42.027 92.6354 42.7004 94.9348 42.7004C98.0342 42.7004 99.5075 41.5603 99.5075 39.8748C99.5075 37.946 97.2609 37.3664 93.6344 36.169C89.5016 34.7932 86.6377 32.988 86.6377 28.7972C86.6377 24.071 90.434 21.3567 95.8963 21.3567C99.7033 21.3567 102.763 22.5594 104.46 23.846Z" fill="white"/>
<path d="M116.845 47.2078V26.3575H109.096V21.7922H129.909V26.3575H122.183V47.2078H116.845Z" fill="white"/>
<path d="M151.379 32.0706V36.6359H141.163V42.6006H153.016V47.2078H135.826V21.7922H153.016V26.3438H141.163V32.0706H151.379Z" fill="white"/>
<path d="M164.931 42.2734L163.243 47.2086H157.647L167.205 21.793H172.578L182.406 47.2078H176.621L174.897 42.2726L164.931 42.2734ZM169.861 27.8553L166.38 38.0315H173.414L169.861 27.8553Z" fill="white"/>
<path d="M199.815 46.4673L192.952 31.7487V47.2078H187.84V21.7922H192.94L201.507 40.1388L209.77 21.7922H214.915V47.2078H209.804V31.616L202.828 46.4673H199.815Z" fill="white"/>
<path d="M225.235 24.9983C225.235 27.1826 223.594 28.5439 221.71 28.5439C219.819 28.5439 218.173 27.1826 218.173 24.9983C218.173 22.8148 219.819 21.4626 221.71 21.4626C223.594 21.4626 225.235 22.8148 225.235 24.9983ZM218.766 24.9983C218.766 26.8257 220.086 27.9735 221.71 27.9735C223.327 27.9735 224.641 26.8257 224.641 24.9983C224.641 23.1657 223.327 22.0354 221.71 22.0354C220.091 22.0354 218.766 23.1794 218.766 24.9983ZM221.758 23.1916C222.673 23.1916 222.98 23.6736 222.98 24.1945C222.98 24.6719 222.696 24.9922 222.351 25.1554L223.17 26.6861H222.499L221.808 25.3293H221.096V26.6861H220.538V23.1916H221.758ZM221.101 24.8176H221.724C222.127 24.8176 222.365 24.5651 222.365 24.2479C222.365 23.9276 222.194 23.7216 221.723 23.7216H221.101V24.8176H221.101Z" fill="white"/>
</g>
<defs>
<clipPath id="clip0_246_3370">
<rect width="226" height="69" fill="white"/>
</clipPath>
</defs>
</svg>
