<svg width="132" height="132" viewBox="0 0 132 132" fill="none" xmlns="http://www.w3.org/2000/svg">
<path d="M49.5 63.25L60.5 74.25L85.25 49.5M110 66C110 92.9964 80.5532 112.631 69.8389 118.882C68.6213 119.592 68.0125 119.947 67.1532 120.132C66.4864 120.275 65.5136 120.275 64.8468 120.132C63.9875 119.947 63.3787 119.592 62.1611 118.882C51.4468 112.631 22 92.9964 22 66V39.6968C22 35.2995 22 33.1008 22.7192 31.2109C23.3545 29.5413 24.3869 28.0515 25.7271 26.8704C27.2442 25.5334 29.3029 24.7614 33.4202 23.2174L62.9101 12.1587C64.0535 11.7299 64.6253 11.5155 65.2134 11.4305C65.7351 11.3551 66.2649 11.3551 66.7866 11.4305C67.3747 11.5155 67.9465 11.7299 69.0899 12.1587L98.5798 23.2174C102.697 24.7614 104.756 25.5334 106.273 26.8704C107.613 28.0515 108.645 29.5413 109.281 31.2109C110 33.1008 110 35.2995 110 39.6968V66Z" stroke="#F0691D" stroke-width="5" stroke-linecap="round" stroke-linejoin="round"/>
</svg>
