<svg width="132" height="132" viewBox="0 0 132 132" fill="none" xmlns="http://www.w3.org/2000/svg">
<path d="M13.7475 49.5H118.247M54.9975 16.5L43.9975 49.5L65.9975 112.75L87.9975 49.5L76.9975 16.5M69.3776 111.444L118.65 52.3168C119.485 51.3147 119.903 50.8137 120.062 50.2544C120.203 49.7613 120.203 49.2387 120.062 48.7456C119.903 48.1863 119.485 47.6853 118.65 46.6832L94.8168 18.0832C94.3318 17.5012 94.0893 17.2103 93.7921 17.0011C93.5287 16.8157 93.2349 16.6781 92.9239 16.5944C92.5729 16.5 92.1941 16.5 91.4366 16.5H40.5583C39.8008 16.5 39.422 16.5 39.071 16.5944C38.76 16.6781 38.4662 16.8157 38.2028 17.0011C37.9056 17.2103 37.6631 17.5012 37.1781 18.0832L13.3448 46.6832C12.5097 47.6852 12.0922 48.1863 11.9327 48.7456C11.792 49.2387 11.792 49.7613 11.9327 50.2544C12.0922 50.8137 12.5097 51.3147 13.3448 52.3168L62.6173 111.444C63.7781 112.837 64.3585 113.533 65.0534 113.787C65.663 114.01 66.3319 114.01 66.9415 113.787C67.6364 113.533 68.2168 112.837 69.3776 111.444Z" stroke="#F0691D" stroke-width="5" stroke-linecap="round" stroke-linejoin="round"/>
</svg>
