<svg width="133" height="132" viewBox="0 0 133 132" fill="none" xmlns="http://www.w3.org/2000/svg">
<path d="M66.5 93.5C66.5 108.688 78.8122 121 94 121C109.188 121 121.5 108.688 121.5 93.5C121.5 78.3122 109.188 66 94 66C78.8122 66 66.5 78.3122 66.5 93.5ZM66.5 93.5C66.5 87.308 68.5465 81.5939 72 76.9973V27.5M66.5 93.5C66.5 98.0394 67.5999 102.322 69.5477 106.096C64.9142 110.01 54.2121 112.75 41.75 112.75C25.0434 112.75 11.5 107.825 11.5 101.75V27.5M72 27.5C72 33.5751 58.4566 38.5 41.75 38.5C25.0434 38.5 11.5 33.5751 11.5 27.5M72 27.5C72 21.4249 58.4566 16.5 41.75 16.5C25.0434 16.5 11.5 21.4249 11.5 27.5M11.5 77C11.5 83.0751 25.0434 88 41.75 88C53.7895 88 64.1863 85.4424 69.0555 81.7398M72 52.25C72 58.3251 58.4566 63.25 41.75 63.25C25.0434 63.25 11.5 58.3251 11.5 52.25" stroke="#F0691D" stroke-width="5" stroke-linecap="round" stroke-linejoin="round"/>
<path d="M87.75 97.6667C87.75 99.9679 89.6155 101.833 91.9167 101.833H96.0833C98.3845 101.833 100.25 99.9679 100.25 97.6667C100.25 95.3655 98.3845 93.5 96.0833 93.5H91.9167C89.6155 93.5 87.75 91.6345 87.75 89.3333C87.75 87.0322 89.6155 85.1667 91.9167 85.1667H96.0833C98.3845 85.1667 100.25 87.0322 100.25 89.3333M94 83.0833V103.917" stroke="#F0691D" stroke-width="3" stroke-linecap="round" stroke-linejoin="round"/>
</svg>
